<svg id="Layer_1" data-name="Layer 1" xmlns="http://www.w3.org/2000/svg" viewBox="0 0 432.52 170.75"><defs><style>.cls-1{fill:#8da2c4;}</style></defs><path class="cls-1" d="M91.12,18.49c-.48,8.1-4.54,13.62-10.38,18.64a9.32,9.32,0,0,1-1.29,1.14l-.16.16H79a29.22,29.22,0,0,1-6-2.59,2.18,2.18,0,0,1-.65-3.09,19,19,0,0,1,3.25-3.89l.48-.48a16.09,16.09,0,0,0,4.7-9.89c.17-4.54-2.59-7.79-7.45-8.76a14.93,14.93,0,0,0-3.73-.33c-8.92,0-16.38,6.65-20,14.44a8.87,8.87,0,0,0-.49,4.21,23.35,23.35,0,0,0,2,6.49,161.79,161.79,0,0,1,8.27,22.54,73.39,73.39,0,0,1,2.27,31.78c-2.92,18.32-18,35-37.46,35-8.59,0-16.37-3.25-20.59-11.19C-2.12,102-1,91.46,6.8,81.4c3.73-5.19,10.38-7.94,16.54-7.94a8,8,0,0,0,1.95.16,23.92,23.92,0,0,1,6.81,1.13l.16.17a3.27,3.27,0,0,1,2.27,1.94v.33a6.9,6.9,0,0,1-.81,1.46,4.5,4.5,0,0,0-.81,2.75v.16l-.16.17A5.75,5.75,0,0,1,29,83.51a4.73,4.73,0,0,1-1.46-.32L26.1,82.7h-.33a12.67,12.67,0,0,0-2.43-.33c-5.35,0-9.56,4.71-11.35,9.41a21.51,21.51,0,0,0-.65,13.46A12.7,12.7,0,0,0,13,109a12.82,12.82,0,0,0,11.36,6.16c13.13,0,23.67-12.16,26.75-24,2.27-8.92,2-18.16-.81-29.35A110.55,110.55,0,0,0,43,40.86a45.57,45.57,0,0,1-3.4-9.24,19.15,19.15,0,0,1,2.75-15.4C48.64,6.81,58.2,0,69.88,0a32.47,32.47,0,0,1,5.51.49C85.12,2,91.77,9.57,91.12,18.49Z"/><path class="cls-1" d="M101.5,86.27c-3.24,8.1-12,21.56-21.73,22.21-.49,0-1.13.16-1.62.16-5,0-8.11-2.91-9.24-8.43a31,31,0,0,1,1.29-15.4C73,76.21,84,54.16,95,54.16c2.44,0,7.46,2.76,7.46,5.51.16,2.27,1,4.22,1.46,6.49a16.45,16.45,0,0,1,.49,5.67c0,1.3-.49,2.76.16,4.38a1,1,0,0,0,1,.49c3.08,0,11.68-4.7,13-5.19a3.91,3.91,0,0,1,1.78-.65c.49,0,.65.49,1,2.11a13.85,13.85,0,0,1-.16,5.19c-.81,3.08-5.84,4.21-8.76,5.19C111.07,83.67,102,85.29,101.5,86.27ZM78,99.08a7.19,7.19,0,0,0,1.62.32C84,99.4,89,91.29,91,88.05c.49-.65,1.3-1.46,1-2.59-1.62-1.14-3.24-2.11-4.86-3.25s-2.43-3.4-3.89-5C78.47,83.19,76,92.75,78,99.08Zm16.7-23c1.13-3.4,1.46-6.16-.16-9.08a5.26,5.26,0,0,0-3.08,5.19A4.25,4.25,0,0,0,94.69,76.05Z"/><path class="cls-1" d="M144.79,94.05c-6.16,12.16-17.51,19.46-29.35,25.13a8.4,8.4,0,0,0-4.38,4.71c-5.83,14.91-18,46.86-36.64,46.86-6.81,0-12.33-5.19-12.81-12.49a24.21,24.21,0,0,1,1.29-8.92c7.14-21.89,20.43-26.75,39.73-33.89a6.57,6.57,0,0,0,4.22-4.54C112,95,117.23,79.29,122.9,63.56a17,17,0,0,1,4.87-7.13h2.75a10.86,10.86,0,0,1,4.06,4c-.33.49-.33,1.3-.81,1.79-2.44,3.24-3.57,7.13-4.87,10.86-3.89,10.06-7.13,20.43-10.54,30.81-.16,1-.49,1.79-.65,2.76a1.42,1.42,0,0,0,1,.48c.49,0,.82-.48,1.3-.64,6.33-3.73,12-8.27,15.89-14.76a27.42,27.42,0,0,1,1.95-2.59c.16-.17.49-.17,1-.33,1.79.49,2.6,2.6,4.7,2.76C144,91.78,144.47,93.24,144.79,94.05Zm-44.43,32.27a42.35,42.35,0,0,0-9.08,3.08C80.09,134.26,73.61,143,70.85,154.53a11.43,11.43,0,0,0-.33,3.25c.33,2.92,2,4.05,4.71,4.05a12.28,12.28,0,0,0,5.67-2.27c6.81-4.86,13-17.84,16.22-25.13A42.79,42.79,0,0,0,100.36,126.32Zm30.32-84.48c-.32-3.09,1.95-4.38,4.22-5.68h.81a14.48,14.48,0,0,1,4.38,1.14c0,2.27,1,4.7-.49,7.13a3.68,3.68,0,0,1-2.59.65,9.07,9.07,0,0,0-2.92.32A8,8,0,0,1,130.68,41.84Z"/><path class="cls-1" d="M169.11,86.27c-3.24,8.1-12,21.56-21.73,22.21-.48,0-1.13.16-1.62.16-5,0-8.1-2.91-9.24-8.43a31.17,31.17,0,0,1,1.3-15.4c2.75-8.6,13.78-30.65,24.81-30.65,2.43,0,7.46,2.76,7.46,5.51.16,2.27,1,4.22,1.46,6.49a16.69,16.69,0,0,1,.48,5.67c0,1.3-.48,2.76.16,4.38a1,1,0,0,0,1,.49c3.08,0,11.67-4.7,13-5.19a3.91,3.91,0,0,1,1.78-.65c.49,0,.65.49,1,2.11a13.84,13.84,0,0,1-.17,5.19c-.81,3.08-5.83,4.21-8.75,5.19C178.68,83.67,169.6,85.29,169.11,86.27ZM145.6,99.08a7.29,7.29,0,0,0,1.62.32c4.38,0,9.41-8.11,11.35-11.35.49-.65,1.3-1.46,1-2.59-1.63-1.14-3.25-2.11-4.87-3.25s-2.43-3.4-3.89-5C146.09,83.19,143.66,92.75,145.6,99.08Zm16.7-23c1.14-3.4,1.46-6.16-.16-9.08a5.26,5.26,0,0,0-3.08,5.19A4.26,4.26,0,0,0,162.3,76.05Z"/><path class="cls-1" d="M216.62,94.7a6.57,6.57,0,0,0,2.43.48c8.76,0,24.49-17.35,29.19-24,.65-1.14,1.14-2.6,3.08-2.92,1.14.65,2.11,2.11,3.73,2.11h.65c.49,1,.81,1.78,1.3,2.59a2.22,2.22,0,0,1-.33,1.13c-7.62,12-17.51,21.57-30.16,28.06a16.29,16.29,0,0,1-7.62,2.11c-6.16,0-10.7-2.92-11.67-9.41a3.28,3.28,0,0,0-.33-1.46,1.22,1.22,0,0,0-.65-.16c-.65,0-1,.65-1.46,1.13-2.59,2.44-5,5-7.62,7.46-2.92,2.76-7.13,5.19-11.35,5.19-4.86,0-8.75-3.56-9.08-8.92a20.51,20.51,0,0,1,1.3-8.91c3.4-8.27,13-31.63,21.73-35.52,1.46.65,2.92,1.46,4.38,2.11a8.7,8.7,0,0,0,.16,2.11c1,2.11,0,3.89-1.62,5A13,13,0,0,0,199,67.13,121.33,121.33,0,0,0,187,91c-.81,2-1.62,3.89-.81,6a1.4,1.4,0,0,0,1,.49,2.91,2.91,0,0,0,1.62-.65,27.56,27.56,0,0,0,5.35-4.38c4.54-4.54,8.6-9.24,12.65-14.11a98,98,0,0,1,7.62-8.76A110.67,110.67,0,0,0,222.13,60c.82-1.3,1.46-2.6,3.09-3.41,1.78,1,3.56,1.79,5.35,2.76,1.29,1.94.48,3.57-.65,5.35-5,7-10.87,16.7-13.14,25C216.46,91.29,216,92.92,216.62,94.7Z"/><path class="cls-1" d="M237.7,97.94c.32-1,.49-1.94,1-3.08,3.73-10.86,7.46-21.73,11.52-32.59a40.29,40.29,0,0,1,2.59-6.16,14.14,14.14,0,0,1,2.11-3.25c1.3-1.78,2.11-2.43,3.4-2.43a12.88,12.88,0,0,1,4.22,1.3c.49,1.62,2.43,3.08,2.11,5.19-.17.32.48.81,1,1.29a13.93,13.93,0,0,1,2.59,3.73c1.14,2.27,2.92,3.57,5.19,3.57,1.79,0,8.92-2.43,10.71-3.08s5.19-3.57,7.45-3.57a1.26,1.26,0,0,1,.82.16A4.75,4.75,0,0,1,294,60.48c3.4,4.06,2.75,6-1.46,8.27-5.19,2.6-12.33,5.52-18.33,5.52a14.15,14.15,0,0,1-7.78-2.11,7.17,7.17,0,0,0-3.57-1.46A361,361,0,0,0,246,103.13c-1.14.16-1.95.16-2.92.33-.81-1.14-2.43-1-3.4-1.63C237.86,100.7,237.38,99.73,237.7,97.94Z"/><path class="cls-1" d="M296.07,69.4c6.17-5.67,16.87-15.08,25-15.08A6.27,6.27,0,0,1,327,60a15.14,15.14,0,0,1-.64,7.62c-1.14,4-1.95,5-3.57,8.76-2.11,5.18-4.38,10.05-6.49,15.24a30.51,30.51,0,0,0-1.62,5,1.94,1.94,0,0,0,0,1.63,1,1,0,0,0,.65.16,2.21,2.21,0,0,0,1.46-.81c7-5.19,17.84-17.52,22.54-24.81,1-1.46,1.62-3.25,3.73-4.06,1.62,2.11,4.86,2.11,5.84,5.35-5.36,9.09-25.3,34.87-36.16,34.87-4.06,0-7.14-2.76-7.46-7.3a23.16,23.16,0,0,1,1.29-9.4c1.3-4.22,3.25-8.11,4.87-12.17,1.94-4.21,2.75-5.83,4.7-10.21a11.48,11.48,0,0,0,1.46-4.54.88.88,0,0,0-.81-.33,5.24,5.24,0,0,0-1.46.49c-12.65,7.46-24.81,23.68-32.11,36a22.59,22.59,0,0,1-3.08,3.89c-1.13,1.3-1.78,1.78-2.59,1.78a7.46,7.46,0,0,1-2.27-.81,9.09,9.09,0,0,1-2.27-.81c-1.79-2.27-1.62-4.7-.65-7.13,6-13.3,11.19-26.92,18.16-39.73,1.3-2.27,2.59-4.7,5-6.16,2.27,1.3,5.19,1.78,6.48,4.7-1.29,2.43-2.11,5-4.05,7a8.75,8.75,0,0,0-2.43,4.71c0,.32-.17.48-.17.64C295.59,69.56,295.75,69.4,296.07,69.4Z"/><path class="cls-1" d="M346.66,88.7c-.48,3.4,0,6.32,2.76,8.76A6,6,0,0,0,353,99.08c6.48,0,12-3.41,16.05-8.11l10.87-11.84c.81-1,1.45-2.11,3.24-2.27,1.13,2.27,4.7,2.43,5,5.84-1,1.94-2.59,3.4-4.05,5-2.92,3.24-6,6.48-8.92,9.73-6.81,7.45-13.78,10.7-23.67,10.7-6.33-.49-13.14-8-13.79-14.11-1.78-17.51,4.87-31.46,18-42.65a17.85,17.85,0,0,1,11.68-4.21,7.87,7.87,0,0,1,7.78,5.67,15.29,15.29,0,0,1,.49,10.06c-3.57,11.51-12.49,19.13-23.51,23.18A18.73,18.73,0,0,0,346.66,88.7Zm19.46-32.27c-7.13,1.78-17.35,14.11-17.35,21.24a30.36,30.36,0,0,0,14.76-10.54,17.79,17.79,0,0,0,3.4-7.3A3.1,3.1,0,0,0,366.12,56.43Z"/><path class="cls-1" d="M374.07,97.94a31.23,31.23,0,0,1,1-3.08c3.73-10.86,7.46-21.73,11.51-32.59a40.33,40.33,0,0,1,2.6-6.16,13.78,13.78,0,0,1,2.1-3.25c1.3-1.78,2.11-2.43,3.41-2.43a12.84,12.84,0,0,1,4.21,1.3c.49,1.62,2.44,3.08,2.11,5.19-.16.32.49.81,1,1.29a14.41,14.41,0,0,1,2.59,3.73c1.14,2.27,2.92,3.57,5.19,3.57,1.78,0,8.92-2.43,10.7-3.08s5.19-3.57,7.46-3.57a1.22,1.22,0,0,1,.81.16,4.57,4.57,0,0,1,1.62,1.46c3.41,4.06,2.76,6-1.46,8.27-5.18,2.6-12.32,5.52-18.32,5.52a14.13,14.13,0,0,1-7.78-2.11,7.21,7.21,0,0,0-3.57-1.46,358.44,358.44,0,0,0-16.86,32.43c-1.14.16-1.95.16-2.92.33-.81-1.14-2.44-1-3.41-1.63C374.23,100.7,373.74,99.73,374.07,97.94Z"/><path class="cls-1" d="M142.79,148.76a10.66,10.66,0,0,1,10.71-11.1c5.4,0,8.61,3.18,9.57,6.9l-3.39,1.14a5.9,5.9,0,0,0-6.18-4.65c-3.51,0-7,2.55-7,7.71,0,5,3.42,7.62,7.05,7.62a6.35,6.35,0,0,0,6.33-4.68l3.3,1.08a9.54,9.54,0,0,1-9.63,7.05C147.8,159.83,142.79,155.69,142.79,148.76Z"/><path class="cls-1" d="M184.49,137.66a11.09,11.09,0,1,1-10.8,11.07A10.67,10.67,0,0,1,184.49,137.66Zm0,18.75c3.6,0,7.14-2.55,7.14-7.68s-3.54-7.68-7.14-7.68-7.11,2.55-7.11,7.68S180.92,156.41,184.49,156.41Z"/><path class="cls-1" d="M207.54,159.38V138.11h13.23v3.39h-9.63v6h8.64v3.33h-8.64v8.58Z"/><path class="cls-1" d="M232.65,159.38V138.11h13.23v3.39h-9.63v6h8.64v3.33h-8.64v8.58Z"/><path class="cls-1" d="M257.77,159.38V138.11h13.14v3.36h-9.54v5.64H270v3.27h-8.64V156h9.54v3.36Z"/><path class="cls-1" d="M283.63,159.38V138.11h13.14v3.36h-9.54v5.64h8.64v3.27h-8.64V156h9.54v3.36Z"/><path class="cls-1" d="M324.05,148.76a10.66,10.66,0,0,1,10.71-11.1c5.4,0,8.61,3.18,9.57,6.9l-3.39,1.14a5.9,5.9,0,0,0-6.18-4.65c-3.51,0-7,2.55-7,7.71,0,5,3.42,7.62,7.05,7.62a6.35,6.35,0,0,0,6.33-4.68l3.3,1.08a9.54,9.54,0,0,1-9.63,7.05C329.06,159.83,324.05,155.69,324.05,148.76Z"/><path class="cls-1" d="M365.76,137.66A11.09,11.09,0,1,1,355,148.73,10.67,10.67,0,0,1,365.76,137.66Zm0,18.75c3.6,0,7.14-2.55,7.14-7.68s-3.54-7.68-7.14-7.68-7.11,2.55-7.11,7.68S362.19,156.41,365.76,156.41Z"/><path class="cls-1" d="M389.7,154.67a2.47,2.47,0,0,1,2.46,2.45,2.44,2.44,0,0,1-2.46,2.43,2.41,2.41,0,0,1-2.43-2.43A2.44,2.44,0,0,1,389.7,154.67Z"/></svg>